<?xml version="1.0" encoding="utf-8"?>
<!-- Generator: Adobe Illustrator 28.2.0, SVG Export Plug-In . SVG Version: 6.00 Build 0)  -->
<svg version="1.1" id="Layer_2_00000060023505351189637810000008271060520724736662_"
	 xmlns="http://www.w3.org/2000/svg" xmlns:xlink="http://www.w3.org/1999/xlink" x="0px" y="0px" viewBox="0 0 316.6 192"
	 style="enable-background:new 0 0 316.6 192;" xml:space="preserve">
<style type="text/css">
	.st0{fill:none;stroke:#000000;stroke-width:0.5;stroke-miterlimit:10;}
</style>
<g id="Layer_1-2">
	<path class="st0" d="M107.4,0.9H0.2V190h107.2l39.4-94.6L107.4,0.9z M103.1,182.2H9.7V8.7h93.4l34.3,86.7L103.1,182.2L103.1,182.2z
		"/>
	<path class="st0" d="M103.1,8.5H9.7v173.4h93.4l34.3-86.7L103.1,8.5z M101.6,178.8H12.9V11.7h88.8l32.6,83.6
		C134.2,95.2,101.6,178.8,101.6,178.8z"/>
	<path class="st0" d="M169.7,95.4l39.4,94.6h107.2V0.8H209.1L169.7,95.4L169.7,95.4z M179.1,95.4l34.3-86.7h93.4v173.4h-93.4
		L179.1,95.4L179.1,95.4z"/>
	<path class="st0" d="M179.1,95.2l34.3,86.7h93.4V8.5h-93.4L179.1,95.2L179.1,95.2z M182.3,95.2l32.6-83.5h88.8v167.1h-88.8
		L182.3,95.2L182.3,95.2z"/>
	<path d="M13.3,13.5c5.5,0.6,11.1,0.6,16.6,0.7s11.3,0.3,17,0.2c11.3-0.2,22.7-1.3,34-1.5c6.6-0.1,13.2,0.1,19.7,1
		c1.6,0.2,2.2-2.2,0.7-2.4C89.9,10,78.4,10.3,66.9,11c-5.8,0.3-11.5,0.7-17.2,0.9s-11.5-0.1-17.3-0.1C26,11.7,19.6,11.7,13.3,11
		C11.7,10.9,11.7,13.4,13.3,13.5L13.3,13.5L13.3,13.5z"/>
	<path d="M216.1,14.1c3,0,5.9-0.7,8.8-1.3s5.7-0.7,8.6-0.6c6.1,0.2,12.1,0.6,18.2,1c11.5,0.7,23.1,1.5,34.6,0.9
		c6.2-0.3,12.4,1.1,18.5,0c1.6-0.3,0.9-2.7-0.7-2.4c-5.4,0.9-11-0.2-16.4-0.1s-11.1,0.3-16.7,0.2c-11.9-0.4-23.7-1.5-35.5-1.9
		c-3.2-0.1-6.4-0.3-9.6,0.2s-6.5,1.6-9.9,1.6C214.5,11.6,214.5,14.1,216.1,14.1L216.1,14.1L216.1,14.1z"/>
	<path d="M313.4,3.1c0.1,11.9-0.4,23.8-0.2,35.7c0.1,5.9,0.5,11.8,0.8,17.7c0.2,6.2,0.2,12.4,0.1,18.6c-0.2,12.4-0.8,24.8-0.7,37.2
		c0.1,6.1,0.4,12.2,0.5,18.2s0,12.2-0.1,18.3c-0.3,13.8-1,27.6-1.2,41.4c0,1.6,2.5,1.6,2.5,0c0.2-12.4,0.8-24.7,1.1-37.1
		c0.3-12.1,0.2-24.2-0.2-36.4c-0.3-12.4,0.2-24.8,0.5-37.2c0.1-6.1,0.2-12.2,0.1-18.4s-0.6-12.2-0.8-18.2C315.4,29.6,316,16.3,316,3
		C315.9,1.5,313.4,1.5,313.4,3.1L313.4,3.1L313.4,3.1z"/>
	<path d="M145.7,95.1c-6.3,11.8-9.9,24.7-14.6,37.1c-2.4,6.4-5.4,12.6-7.7,19.1s-3.9,13-6.8,19.1c-3.1,6.7-7.3,12.9-10.4,19.6
		c-0.7,1.4,1.5,2.7,2.2,1.3c2.8-6.1,6.4-11.6,9.4-17.6s4.8-12.2,6.9-18.5s5-12.8,7.6-19.2s4.5-12.3,6.7-18.5
		c2.5-7.2,5.3-14.4,8.9-21.2C148.6,94.9,146.5,93.7,145.7,95.1L145.7,95.1L145.7,95.1z"/>
	<path d="M107.5,1.9c10.5,23.8,19,48.4,29.4,72.3c2.9,6.8,6.1,13.5,9.4,20.1c0.7,1.4,2.9,0.2,2.2-1.3
		c-11.7-23.3-20.5-47.8-30.2-71.9c-2.8-6.9-5.6-13.7-8.6-20.4C109-0.8,106.8,0.5,107.5,1.9L107.5,1.9z"/>
	<path d="M299.7,14.4c0.1,10.5-0.4,21-0.2,31.5c0.1,5.2,0.5,10.4,0.8,15.6c0.2,5.2,0.2,10.8,0.1,16.3c-0.2,10.9-0.8,21.9-0.7,32.8
		c0.1,5.4,0.4,10.8,0.5,16.2s0,10.6-0.1,15.9c-0.3,12.2-1,24.4-1.2,36.7c0,1.5,2.3,1.5,2.3,0c0.2-10.9,0.8-21.7,1.1-32.6
		s0.2-21.3-0.2-32c-0.4-10.9,0.2-21.9,0.5-32.8c0.1-5.4,0.2-10.8,0.1-16.3c-0.1-5.3-0.6-10.5-0.8-15.8c-0.4-11.8,0.2-23.6,0.1-35.5
		C302,12.9,299.7,12.9,299.7,14.4L299.7,14.4L299.7,14.4z"/>
</g>
</svg>
