<?xml version="1.0" encoding="UTF-8"?>
<svg id="Layer_2" data-name="Layer 2" xmlns="http://www.w3.org/2000/svg" viewBox="0 0 664.9 146.22">
  <defs>
    <style>
      .cls-1, .cls-2, .cls-3, .cls-4 {
        fill: none;
        stroke: #231f20;
        stroke-miterlimit: 10;
      }

      .cls-1, .cls-3 {
        stroke-width: .4px;
      }

      .cls-2 {
        stroke-width: 1.3px;
      }

      .cls-2, .cls-3, .cls-4 {
        stroke-linecap: round;
      }

      .cls-4 {
        stroke-width: 1.2px;
      }
    </style>
  </defs>
  <g id="Layer_1-2" data-name="Layer 1">
    <g>
      <rect class="cls-1" x=".95" y="130.95" width="660.01" height="15.07"/>
      <rect class="cls-3" x="97.5" y=".2" width="92.22" height="73.64" rx="9.59" ry="9.59"/>
      <path class="cls-3" d="M187.46,95.82c-21.57,0-21.57-.09-43.14-.09-21.57,0-21.57,1.42-43.14,1.42-3.09,0-6.36-4.65-6.36-9.78,0-2.12-.11-2.12-.11-4.23,0-5.13,3.39-9.36,6.47-9.36,8.88,0,8.9-.8,17.65.75,3.89,3.85,43.37,4.42,53.08-.07,6.54-1.27,6.54.27,13.2.27,3.09,0,5,1.35,5,6.48.16,3.1-.4,3.12-.24,6.21,0,5.13.67,8.41-2.41,8.41Z"/>
      <path class="cls-2" d="M189.18,80.1c.29,3.09.67,3.02.83,6.12,0,5.13.53,8.43-2.55,8.43-21.57,0-21.57.21-43.14.21-21.57,0-21.57.21-43.14.21-3.09,0-5.77-3.75-5.77-8.88,0-2.12-.21-2.12-.21-4.23"/>
      <rect class="cls-3" x="191.63" y=".2" width="92.22" height="73.64" rx="9.59" ry="9.59"/>
      <path class="cls-3" d="M282.66,96.36q-21.57,0-43.14,0c-21.57,0-21.57.49-43.14.49-3.09,0-5.86-4.34-5.86-9.47,0-2.12-.61-2.12-.61-4.23,0-5.13,3.38-9.38,6.46-9.38,8.88,0,9.19-2.4,17.94-.85,3.89,3.85,42.86,4.92,52.58.43,6.54-1.27,6.76,1.09,13.42,1.09,3.09,0,5.53,1.61,5.53,6.74.16,3.1-.07,3.1.09,6.2,0,5.13-.19,8.99-3.27,8.99Z"/>
      <path class="cls-2" d="M284.79,80.06c.29,3.09,1,3.02,1.16,6.12,0,5.13-.2,10.22-3.29,10.22-21.57,0-21.57-.99-43.14-.99-21.57,0-21.57.56-43.14.56-3.09,0-5.9-4.66-5.9-9.79,0-2.12.21-2.12.21-4.23"/>
      <rect class="cls-3" x="285.77" y=".2" width="92.22" height="73.64" rx="9.59" ry="9.59"/>
      <path class="cls-3" d="M377.77,96.52c-21.57,0-21.57.18-43.14.18-21.57,0-21.57-.31-43.14-.31-3.09,0-6.24-3.9-6.24-9.03,0-2.12,1.32-2.12,1.32-4.23,0-5.13,1.83-9.89,4.92-9.89,8.88,0,8.91-.32,17.66,1.24,3.89,3.85,43.07,2.99,52.79-1.5,6.54-1.27,6.83,1.57,13.49,1.57,3.09,0,5.91,1.47,5.91,6.6.16,3.1-1.18,3.16-1.02,6.25,0,5.13.55,9.12-2.54,9.12Z"/>
      <path class="cls-2" d="M379.99,80.05c.29,3.09.32,3.06.48,6.16,0,5.13.39,10.14-2.7,10.14-21.57,0-21.57-1.82-43.14-1.82-21.57,0-21.57.92-43.14.92-3.09,0-4.87-4.14-4.87-9.27,0-2.12-1.61-2.12-1.61-4.23"/>
      <rect class="cls-3" x="3.37" y=".2" width="92.22" height="73.64" rx="9.59" ry="9.59"/>
      <path class="cls-3" d="M92.35,97.01c-21.57,0-21.57.46-43.14.46-21.57,0-21.57-1.03-43.14-1.03-3.09,0-5.55-3.94-5.55-9.07,0-2.12-.14-2.12-.14-4.23,0-5.13,2.6-9.62,5.69-9.62,8.88,0,8.9-.52,17.65,1.03,3.89,3.85,43.43,4.7,53.15.21,6.54-1.27,6.48.01,13.14.01,3.09,0,4.15,1.34,4.15,6.47.16,3.1,1.53,3.02,1.69,6.11,0,5.13-.4,9.66-3.49,9.66Z"/>
      <path class="cls-2" d="M95.76,79.94c.29,3.09-1,3.18-.84,6.28,0,5.13.52,8.89-2.57,8.89-21.57,0-21.57.99-43.14.99-21.57,0-21.57-.76-43.14-.76-3.09,0-5.41-4.02-5.41-9.15,0-2.12.5-2.12.5-4.23"/>
      <path class="cls-4" d="M94.97,26.95c.71,10.93.63,21.89.55,32.85-.03,4.72-.12,9.65-2.33,13.82"/>
      <path class="cls-4" d="M97.27,65.93c-.1,1.41-.19,2.85.16,4.22.34,1.37,1.2,2.69,2.51,3.22"/>
      <path class="cls-4" d="M190.37,39.42c-.04,6.22-.08,12.43-.12,18.65-.02,3.81-.06,7.69-1.19,11.32-.33,1.06-.76,2.11-.84,3.21-.14,1.76.58,3.46,1.29,5.08"/>
      <path class="cls-4" d="M285.6,13.3c-1.47,17.27-1.27,34.68.6,51.91.2,1.87.42,3.82-.25,5.57-.29.77-.75,1.49-.87,2.3-.19,1.3.49,2.55,1.15,3.68"/>
      <path class="cls-4" d="M380.24,19.45c1.86,9.18.32,19.21.23,28.91-.05,6.17.49,12.33.39,18.5-.04,2.31-.32,5.02-1.55,6.05"/>
      <rect class="cls-3" x="474.03" y=".81" width="92.22" height="73.64" rx="9.59" ry="9.59"/>
      <path class="cls-3" d="M565.68,96.45c-21.57,0-21.57-.12-43.14-.12-21.57,0-21.57,1.26-43.14,1.26-3.09,0-4.75-4.48-4.75-9.61,0-2.12-1.77-2.12-1.77-4.23,0-5.13,3.43-9.59,6.52-9.59,8.88,0,9.06-1.47,17.81.08,3.89,3.85,43.19,5.24,52.9.75,6.54-1.27,6.56-.76,13.22-.76,3.09,0,5.42,2.43,5.42,7.57.16,3.1-.18,3.11-.02,6.2,0,5.13.05,8.46-3.04,8.46Z"/>
      <path class="cls-2" d="M567.92,80.66c.29,3.09,1.34,3.01,1.5,6.11,0,5.13-.66,9.69-3.75,9.69-21.57,0-21.57-1.23-43.14-1.23-21.57,0-21.57.18-43.14.18-3.09,0-6.22-3.48-6.22-8.61,0-2.12-.16-2.12-.16-4.23"/>
      <rect class="cls-3" x="568.16" y=".81" width="92.22" height="73.64" rx="9.59" ry="9.59"/>
      <path class="cls-3" d="M660.87,98.17c-21.57,0-21.57-.99-43.14-.99-21.57,0-21.57.25-43.14.25-3.09,0-5.51-4.32-5.51-9.45,0-2.12-.71-2.12-.71-4.23,0-5.13,3.13-9.82,6.22-9.82,8.88,0,9.06-1.23,17.81.32,3.89,3.85,43.22,5.34,52.93.85,6.54-1.27,6.53-.54,13.19-.54,3.09,0,5.3,2.1,5.3,7.24.16,3.1.71,3.06.87,6.16,0,5.13-.74,10.22-3.83,10.22Z"/>
      <path class="cls-2" d="M664.17,80.56c.29,3.09-.59,3.16-.43,6.25,0,5.13.22,9.91-2.87,9.91-21.57,0-21.57-.53-43.14-.53q-21.57,0-43.14.04c-3.09,0-6.17-4.3-6.17-9.43,0-2.12,1.3-2.12,1.3-4.23"/>
      <rect class="cls-3" x="379.9" y=".81" width="92.22" height="73.64" rx="9.59" ry="9.59"/>
      <path class="cls-3" d="M471.19,97c-21.57,0-21.57.72-43.14.72-21.57,0-21.57-.94-43.14-.94-3.09,0-5.95-3.66-5.95-8.8,0-2.12.95-2.12.95-4.23,0-5.13,1.91-8.45,5-8.45,8.88,0,9.05-2.57,17.8-1.02,3.89,3.85,43.13,4.85,52.85.36,6.54-1.27,6.62-.97,13.28-.97,3.09,0,5.55,2.98,5.55,8.11.16,3.1-.17,3.11,0,6.2,0,5.13-.1,9.01-3.19,9.01Z"/>
      <path class="cls-2" d="M474.69,80.55c.29,3.09-1.23,3.2-1.07,6.29,0,5.13.65,8.61-2.44,8.61-21.57,0-21.57.73-43.14.73-21.57,0-21.57-.84-43.14-.84-3.09,0-5.62-3.4-5.62-8.53,0-2.12.04-2.12.04-4.23"/>
      <path class="cls-4" d="M473.81,27.57c.71,10.93.63,21.89.55,32.85-.03,4.72-.12,9.65-2.33,13.82"/>
      <path class="cls-4" d="M476.11,66.55c-.1,1.41-.19,2.85.16,4.22.34,1.37,1.2,2.69,2.51,3.22"/>
      <path class="cls-4" d="M566.72,40.03c-.04,6.22-.08,12.43-.12,18.65-.02,3.81-.06,7.69-1.19,11.32-.33,1.06-.76,2.11-.84,3.21-.14,1.76.58,3.46,1.29,5.08"/>
      <path class="cls-4" d="M662.58,13.91c-1.47,17.27-1.27,34.68.6,51.91.2,1.87.42,3.82-.25,5.57-.29.77-.75,1.49-.87,2.3-.19,1.3.49,2.55,1.15,3.68"/>
      <path class="cls-4" d="M2.74,36.64c-.12,10.84-.24,21.69-.37,32.53-.01,1.09-.01,2.23.52,3.17.53.95,1.79,1.57,2.74,1.04"/>
      <rect class="cls-1" x=".95" y="96.88" width="659.43" height="33.88"/>
      <g>
        <rect class="cls-1" x="52.64" y="99.32" width="188.61" height="29.58" rx="2.71" ry="2.71"/>
        <circle class="cls-3" cx="56.92" cy="103.05" r="1.45"/>
        <circle class="cls-3" cx="237.15" cy="102.69" r="1.45"/>
      </g>
      <g>
        <rect class="cls-1" x="412.47" y="99.32" width="188.61" height="29.58" rx="2.71" ry="2.71"/>
        <circle class="cls-3" cx="416.75" cy="103.05" r="1.45"/>
        <circle class="cls-3" cx="596.98" cy="102.69" r="1.45"/>
      </g>
    </g>
  </g>
</svg>