<?xml version="1.0" encoding="utf-8"?>
<!-- Generator: Adobe Illustrator 28.2.0, SVG Export Plug-In . SVG Version: 6.00 Build 0)  -->
<svg version="1.1" id="Layer_2_00000136406590051210428220000014268689807665405619_"
	 xmlns="http://www.w3.org/2000/svg" xmlns:xlink="http://www.w3.org/1999/xlink" x="0px" y="0px" viewBox="0 0 191.3 143"
	 style="enable-background:new 0 0 191.3 143;" xml:space="preserve">
<style type="text/css">
	.st0{fill:none;stroke:#231F20;stroke-width:0.5;stroke-miterlimit:10;}
	.st1{fill:none;stroke:#231F20;stroke-width:2;stroke-linecap:round;stroke-miterlimit:10;}
</style>
<g id="Layer_1-2">
	<g>
		<g>
			<rect x="0.4" y="0.4" class="st0" width="190.6" height="139.1"/>
			<g>
				<path class="st0" d="M0.2,0.3v139.1h190.6V0.3H0.2z M183.1,133.2H8.4V48.5h174.6L183.1,133.2L183.1,133.2z M183.1,39.7H8.4v-29
					h174.6L183.1,39.7L183.1,39.7z"/>
				<g>
					<path class="st0" d="M8.2,10.3v29h174.6v-29H8.2z M180.5,37h-170V13h170V37z"/>
					<path class="st0" d="M8.2,132.8h174.6V48.1H8.2V132.8z M10.5,51h170v79h-170V51z"/>
				</g>
			</g>
		</g>
		<path class="st1" d="M10.5,52.9c56.7,0.7,113.5,0.4,170.2-0.9"/>
		<path class="st1" d="M180.4,51c-0.9,26.6-0.5,53.1,1.2,79.7"/>
		<path class="st1" d="M180.3,14c-0.6,8.7-0.4,17.3,0.9,26"/>
		<path class="st1" d="M189.5,1c0.9,47,0.5,94-1.2,141"/>
	</g>
</g>
</svg>
