<?xml version="1.0" encoding="utf-8"?>
<!-- Generator: Adobe Illustrator 28.2.0, SVG Export Plug-In . SVG Version: 6.00 Build 0)  -->
<svg version="1.1" id="Layer_2_00000152249755597512259810000007490661191982421924_"
	 xmlns="http://www.w3.org/2000/svg" xmlns:xlink="http://www.w3.org/1999/xlink" x="0px" y="0px" viewBox="0 0 272.4 373.3"
	 style="enable-background:new 0 0 272.4 373.3;" xml:space="preserve">
<style type="text/css">
	.st0{fill:none;stroke:#000000;stroke-width:0.5;stroke-miterlimit:10;}
	.st1{fill:none;stroke:#000000;stroke-miterlimit:10;}
</style>
<g id="Layer_2-2">
	<g id="Layer_1-2">
		<rect x="0.4" y="2.3" class="st0" width="135.5" height="370"/>
		<rect x="135.9" y="2.3" class="st0" width="135.5" height="370"/>
		<path class="st0" d="M109.8,193.3h13.3c1,0,1.9,0.8,1.9,1.9v33.3c0,1-0.8,1.9-1.9,1.9h-13.3c-1,0-1.9-0.8-1.9-1.9v-33.3
			C107.9,194.1,108.7,193.3,109.8,193.3z"/>
		<path class="st0" d="M112.3,197.3h8.2c1,0,1.8,0.8,1.8,1.8v25.3c0,1-0.8,1.8-1.8,1.8h-8.2c-1,0-1.8-0.8-1.8-1.8v-25.3
			C110.5,198.1,111.3,197.3,112.3,197.3z"/>
		<path class="st0" d="M149.8,193.3h13.3c1,0,1.9,0.8,1.9,1.9v33.3c0,1-0.8,1.9-1.9,1.9h-13.3c-1,0-1.9-0.8-1.9-1.9v-33.3
			C147.9,194.1,148.7,193.3,149.8,193.3z"/>
		<path class="st0" d="M152.3,197.3h8.2c1,0,1.8,0.8,1.8,1.8v25.3c0,1-0.8,1.8-1.8,1.8h-8.2c-1,0-1.8-0.8-1.8-1.8v-25.3
			C150.5,198.1,151.3,197.3,152.3,197.3z"/>
		<path class="st1" d="M2.8,1.5C51.5,2.4,100.3,2.6,149,1.6c14.7-0.3,29.5-0.7,44.2-0.5c26.2,0.5,52.2,3.1,78.2,1.9"/>
		<path class="st1" d="M136.6,3.3c-1.1,66.9-1.4,134-0.1,200.8c0.4,20.2,0.9,40.5,0.6,60.8c-0.6,36-3.7,71.8-2.3,107.4"/>
	</g>
	<g id="Layer_1-2-2">
		<path class="st0" d="M97.1,36.6H18.6v138.5h78.5l28.9-69.3L97.1,36.6L97.1,36.6z M93.9,169.3H25.5v-127h68.4l25.1,63.5L93.9,169.3
			L93.9,169.3z"/>
		<path class="st0" d="M93.9,42.2H25.5v127h68.4l25.1-63.5L93.9,42.2L93.9,42.2z M92.8,166.8h-65V44.5h65l23.9,61.2L92.8,166.8
			L92.8,166.8z"/>
		<path class="st0" d="M142.7,105.8l28.9,69.3H250V36.5h-78.5L142.7,105.8L142.7,105.8z M149.6,105.8l25.1-63.5h68.4v127h-68.4
			L149.6,105.8L149.6,105.8L149.6,105.8z"/>
		<path class="st0" d="M149.6,105.6l25.1,63.5h68.4v-127h-68.4L149.6,105.6L149.6,105.6z M151.9,105.6l23.9-61.2h65v122.4h-65
			L151.9,105.6L151.9,105.6L151.9,105.6z"/>
		<path d="M28.2,45.8c4.1,0.4,8.1,0.5,12.2,0.5s8.3,0.2,12.5,0.1c8.3-0.1,16.6-1,24.9-1.1c4.8-0.1,9.6,0.1,14.4,0.8
			c1.2,0.2,1.7-1.6,0.5-1.8c-8.4-1.2-16.8-0.9-25.2-0.4c-4.2,0.2-8.4,0.5-12.6,0.6s-8.4,0-12.7-0.1c-4.7,0-9.3,0-14-0.5
			C27,43.9,27,45.7,28.2,45.8L28.2,45.8L28.2,45.8z"/>
		<path d="M176.6,46.2c2.2,0,4.3-0.5,6.4-1s4.2-0.5,6.3-0.4c4.4,0.2,8.9,0.4,13.3,0.7c8.4,0.5,16.9,1.1,25.3,0.7
			c4.5-0.2,9.1,0.8,13.6,0c1.2-0.2,0.7-2-0.5-1.8c-3.9,0.7-8-0.2-12-0.1s-8.1,0.2-12.2,0.1c-8.7-0.3-17.3-1.1-26-1.4
			c-2.4-0.1-4.7-0.2-7,0.2s-4.8,1.2-7.2,1.2C175.5,44.4,175.5,46.2,176.6,46.2L176.6,46.2L176.6,46.2z"/>
		<path d="M247.9,38.2c0.1,8.7-0.3,17.5-0.2,26.2c0.1,4.3,0.4,8.6,0.6,13c0.2,4.5,0.2,9.1,0.1,13.6c-0.1,9.1-0.6,18.2-0.5,27.3
			c0.1,4.4,0.3,8.9,0.4,13.4c0.1,4.5,0,8.9-0.1,13.4c-0.2,10.1-0.7,20.2-0.9,30.3c0,1.2,1.8,1.2,1.8,0c0.1-9.1,0.6-18.1,0.8-27.1
			c0.2-8.9,0.1-17.8-0.1-26.7c-0.2-9.1,0.1-18.2,0.4-27.3c0.1-4.5,0.2-9,0.1-13.4s-0.4-8.9-0.6-13.3c-0.3-9.7,0.2-19.5,0.1-29.2
			C249.7,37,247.9,37,247.9,38.2L247.9,38.2L247.9,38.2z"/>
		<path d="M125.1,105.5c-4.6,8.7-7.2,18.1-10.7,27.2c-1.8,4.7-4,9.3-5.6,14s-2.9,9.5-4.9,14c-2.3,4.9-5.3,9.4-7.6,14.4
			c-0.5,1.1,1.1,2,1.6,0.9c2-4.4,4.7-8.5,6.9-12.9s3.5-9,5-13.6s3.7-9.4,5.5-14.1s3.3-9,4.9-13.6c1.9-5.3,3.9-10.5,6.6-15.5
			C127.3,105.4,125.7,104.5,125.1,105.5L125.1,105.5L125.1,105.5z"/>
		<path d="M97.1,37.3c7.7,17.4,13.9,35.5,21.5,52.9c2.2,5,4.4,9.9,6.9,14.7c0.5,1.1,2.1,0.1,1.6-0.9c-8.6-17-15-35-22.1-52.7
			c-2-5-4.1-10-6.3-15C98.2,35.3,96.6,36.3,97.1,37.3L97.1,37.3z"/>
		<path d="M237.9,46.4c0.1,7.7-0.3,15.4-0.2,23.1c0.1,3.8,0.4,7.6,0.6,11.4s0.2,7.9,0.1,11.9c-0.1,8-0.6,16-0.5,24
			c0.1,4,0.3,7.9,0.4,11.9c0.1,4,0,7.8-0.1,11.6c-0.2,9-0.7,17.9-0.9,26.9c0,1.1,1.7,1.1,1.7,0c0.1-8,0.6-15.9,0.8-23.9
			s0.1-15.6-0.1-23.4c-0.3-8,0.1-16,0.4-24c0.1-4,0.2-7.9,0.1-11.9c-0.1-3.9-0.4-7.7-0.6-11.6c-0.3-8.6,0.2-17.3,0.1-26
			C239.6,45.3,237.9,45.3,237.9,46.4L237.9,46.4L237.9,46.4z"/>
	</g>
</g>
</svg>
