<?xml version="1.0" encoding="utf-8"?>
<!-- Generator: Adobe Illustrator 28.2.0, SVG Export Plug-In . SVG Version: 6.00 Build 0)  -->
<svg version="1.1" id="Layer_2_00000088852104732486217850000002186231975111755396_"
	 xmlns="http://www.w3.org/2000/svg" xmlns:xlink="http://www.w3.org/1999/xlink" x="0px" y="0px" viewBox="0 0 239.9 171.4"
	 style="enable-background:new 0 0 239.9 171.4;" xml:space="preserve">
<style type="text/css">
	.st0{fill:none;stroke:#231F20;stroke-width:0.5;stroke-miterlimit:10;}
	.st1{fill:none;stroke:#231F20;stroke-width:2;stroke-linecap:round;stroke-miterlimit:10;}
</style>
<g id="Layer_1-2">
	<g>
		<g>
			<path class="st0" d="M108.5,8v127.7c0,2.9-2.4,5.3-5.4,5.3H55.9c-1,0-2,0.3-2.9,0.8L8.5,169.6c-3.6,2.2-8.3-0.3-8.3-4.5V141V8
				c0-2.9,2.4-5.3,5.4-5.3h97.4C106,2.8,108.4,5.1,108.5,8L108.5,8z"/>
			<path class="st0" d="M103.1,2.2H5.6c-3,0-5.4,2.4-5.4,5.3v158.3c0,4.2,4.7,6.8,8.3,4.5l44.5-28c0.9-0.5,1.9-0.8,2.9-0.8h47.2
				c3,0,5.4-2.4,5.4-5.3V7.5C108.5,4.6,106.1,2.2,103.1,2.2L103.1,2.2z M101.8,128.9c0,2.6-2.1,4.8-4.7,4.8H55.7
				c-0.9,0-1.8,0.3-2.5,0.7l-39,25c-3.1,2-7.2-0.3-7.2-4V14.2c0-2.6,2.1-4.8,4.7-4.8h85.5c2.6,0,4.7,2.1,4.7,4.8L101.8,128.9
				L101.8,128.9z"/>
			<path class="st0" d="M97.1,9.5H11.6c-2.6,0-4.7,2.1-4.7,4.8v141.6c0,3.8,4.1,6,7.2,4l39-25c0.8-0.5,1.6-0.7,2.5-0.7h41.4
				c2.6,0,4.7-2.1,4.7-4.8v-115C101.8,11.6,99.7,9.5,97.1,9.5L97.1,9.5z M99.4,127c0,2.5-2,4.6-4.5,4.6H55.3c-0.9,0-1.7,0.2-2.4,0.7
				l-37.4,24.1c-3,1.9-6.9-0.3-6.9-3.9V16c0-2.5,2-4.6,4.5-4.6h81.8c2.5,0,4.5,2.1,4.5,4.6V127z"/>
			<path class="st0" d="M130.6,8v127.7c0,2.9,2.4,5.3,5.4,5.3h47.2c1,0,2,0.3,2.9,0.8l44.5,27.8c3.6,2.2,8.3-0.3,8.3-4.5v-24.1V8
				c0-2.9-2.4-5.3-5.4-5.3H136C133.1,2.7,130.6,5,130.6,8L130.6,8z"/>
			<path class="st0" d="M130.6,7.4v128.6c0,2.9,2.4,5.3,5.4,5.3h47.2c1,0,2,0.3,2.9,0.8l44.5,28c3.6,2.2,8.3-0.3,8.3-4.5v-24.3V7.4
				c0-2.9-2.4-5.3-5.4-5.3H136C133.1,2.1,130.6,4.5,130.6,7.4L130.6,7.4z M137.3,14.1c0-2.6,2.1-4.8,4.7-4.8h85.5
				c2.6,0,4.7,2.1,4.7,4.8v119.5v21.7c0,3.8-4.1,6-7.2,4l-39.1-25c-0.8-0.5-1.6-0.7-2.5-0.7H142c-2.6,0-4.7-2.1-4.7-4.8L137.3,14.1
				L137.3,14.1z"/>
			<path class="st0" d="M137.3,14.1v115c0,2.6,2.1,4.8,4.7,4.8h41.4c0.9,0,1.8,0.3,2.5,0.7l39.1,25c3.1,2,7.2-0.3,7.2-4v-21.7V14.1
				c0-2.6-2.1-4.8-4.7-4.8H142C139.4,9.4,137.3,11.5,137.3,14.1L137.3,14.1z M139.7,15.9c0-2.5,2-4.6,4.5-4.6H226
				c2.5,0,4.5,2.1,4.5,4.6v115.6v21c0,3.6-3.9,5.8-6.9,3.9l-37.4-24.1c-0.7-0.5-1.6-0.7-2.4-0.7h-39.6c-2.5,0-4.5-2.1-4.5-4.6V15.9z
				"/>
		</g>
		<path class="st1" d="M6,2.6c15.2,0.6,26.2,0.9,39.4,0.2c4.1-0.2,8.2,0,12.3,0.2c13.7,0.7,31.8-1.7,45.5-0.9c0,0,5.6-0.3,5.3,5.4
			S107.8,132,107.8,132"/>
		<path class="st1" d="M138,1.6c15.2,0.6,26.1,0.9,39.4,0.2c4.1-0.2,8.2,0,12.3,0.2c13.7,0.7,31.8-1.7,45.5-0.9c0,0,4.4,1.5,3.7,6.3
			s-1.7,91.7-1.7,96.7s0,45-0.3,56.4"/>
	</g>
</g>
</svg>
