<?xml version="1.0" encoding="utf-8"?>
<!-- Generator: Adobe Illustrator 28.2.0, SVG Export Plug-In . SVG Version: 6.00 Build 0)  -->
<svg version="1.1" id="Layer_1" xmlns="http://www.w3.org/2000/svg" xmlns:xlink="http://www.w3.org/1999/xlink" x="0px" y="0px"
	 viewBox="0 0 443.8 305.2" style="enable-background:new 0 0 443.8 305.2;" xml:space="preserve">
<style type="text/css">
	.st0{fill:none;stroke:#000000;stroke-width:0.5;stroke-miterlimit:10;}
	.st1{fill:none;stroke:#000000;stroke-miterlimit:10;}
</style>
<g id="Layer_3">
	<path class="st0" d="M224,16.5v269.7c0,0.6-0.4,1.1-1,1.1h-2.7c-0.6,0-1-0.5-1-1.1V16.5H224z"/>
	<path class="st1" d="M219.4,0.2h4.6c0.6,0,1,0.5,1,1v14.2c0,0.6-0.5,1-1,1h-4.6c-0.6,0-1-0.5-1-1V1.2
		C218.4,0.7,218.8,0.2,219.4,0.2z"/>
	<path class="st1" d="M219.4,287.3h4.6c0.6,0,1,0.5,1,1v14.2c0,0.6-0.5,1-1,1h-4.6c-0.6,0-1-0.5-1-1v-14.2
		C218.4,287.8,218.8,287.3,219.4,287.3z"/>
	<path class="st0" d="M6.6,16.5v269.7c0,0.6-0.4,1.1-1,1.1H2.9c-0.6,0-1-0.5-1-1.1V16.5H6.6z"/>
	<path class="st1" d="M2,0.2h4.6c0.6,0,1,0.5,1,1v14.2c0,0.6-0.5,1-1,1H2c-0.6,0-1-0.5-1-1V1.2C1,0.7,1.5,0.2,2,0.2z"/>
	<path class="st1" d="M2,287.3h4.6c0.6,0,1,0.5,1,1v14.2c0,0.6-0.5,1-1,1H2c-0.6,0-1-0.5-1-1v-14.2C1,287.8,1.5,287.3,2,287.3z"/>
	<path class="st0" d="M441.4,16.5v269.7c0,0.6-0.4,1.1-1,1.1h-2.6c-0.6,0-1-0.5-1-1.1V16.5H441.4z"/>
	<path class="st1" d="M436.7,0.2h4.6c0.6,0,1,0.5,1,1v14.2c0,0.6-0.5,1-1,1h-4.6c-0.6,0-1-0.5-1-1V1.2
		C435.7,0.7,436.2,0.2,436.7,0.2z"/>
	<path class="st1" d="M436.7,287.3h4.6c0.6,0,1,0.5,1,1v14.2c0,0.6-0.5,1-1,1h-4.6c-0.6,0-1-0.5-1-1v-14.2
		C435.7,287.8,436.2,287.3,436.7,287.3z"/>
</g>
<g id="Layer_5">
	<path class="st1" d="M7.6,1.2v11.4c-0.1,0.6-0.6,2.7-2.2,3.6c-0.2,0.1-0.4,0.2-0.6,0.2c-1.4,0.2-2.8-0.1-3.9-1"/>
	<path class="st1" d="M2,303.6c0.7,0.3,3.2,1.2,4.6,0c1.1-0.9,1.1-2.6,1-4c-0.1-2.6-0.1-6.3,0-11.3"/>
	<path class="st1" d="M6.6,280.9V157.3"/>
	<path class="st1" d="M219.4,303.6c2,0.3,4.5,0.4,5.6-1c0.9-1.1,0.4-2.7,0-5c-0.5-3.1-0.5-6.2,0-9.3"/>
	<path class="st1" d="M224,283.3V175.7"/>
	<path class="st1" d="M435.7,302.6c0.7,0.4,3.9,2.2,5.6,1c1-0.8,1-2.3,1-6c0-1.8,0-5,0-9.3"/>
	<path class="st1" d="M441.4,283V173.7"/>
	<path class="st1" d="M442.3,1.2c0.6,3.2,0.6,6.5,0,9.8c-0.8,4.5-2.2,5.3-2.7,5.5c-0.9,0.4-2,0.4-2.9,0"/>
	<path class="st1" d="M225,1.2c-0.1,4.5-0.1,8.1,0,10.4c0.1,2.2,0.2,3.9-1,4.8c-1.4,1.1-3.8,0.3-4.6,0"/>
</g>
</svg>
