<svg xmlns="http://www.w3.org/2000/svg" viewBox="0 0 658.86 79.95"><defs><style>.cls-1,.cls-2{fill:none;}.cls-1,.cls-2,.cls-3{stroke:#231f20;stroke-linecap:round;stroke-miterlimit:10;}.cls-1,.cls-3{stroke-width:0.4px;}.cls-2{stroke-width:2px;}.cls-3{fill:#fff;}</style></defs><g id="Layer_1" data-name="Layer 1"><rect class="cls-1" x="230.34" y="35.66" width="196.91" height="4.65"/><rect class="cls-1" x="14.64" y="35.66" width="196.91" height="4.65"/><rect class="cls-1" x="446.04" y="35.66" width="196.91" height="4.65"/><path class="cls-1" d="M540.21,227.78v-4.05a1.11,1.11,0,0,0-1.11-1.11h-4.05a1.11,1.11,0,0,1-1.11-1.11v-4a1.1,1.1,0,0,0-1.1-1.1h-4.06a1.1,1.1,0,0,0-1.1,1.1v4a1.11,1.11,0,0,1-1.11,1.11h-4.05a1.11,1.11,0,0,0-1.11,1.11v4.05a1.11,1.11,0,0,0,1.11,1.11H539.1A1.11,1.11,0,0,0,540.21,227.78Z" transform="translate(-94.16 -187.8)"/><rect class="cls-1" x="434.32" y="24.03" width="4.65" height="4.53"/><path class="cls-1" d="M533.13,188.55v5.53h-4.65v-5.53a.51.51,0,0,1,.56-.43h3.53A.51.51,0,0,1,533.13,188.55Z" transform="translate(-94.16 -187.8)"/><rect class="cls-1" x="423.95" y="6.29" width="25.41" height="17.74" rx="2.51"/><path class="cls-1" d="M324.51,227.83v-4.05a1.11,1.11,0,0,0-1.11-1.11h-4a1.11,1.11,0,0,1-1.11-1.11v-4.05a1.11,1.11,0,0,0-1.11-1.1h-4.05a1.11,1.11,0,0,0-1.11,1.1v4.05a1.11,1.11,0,0,1-1.11,1.11h-4a1.1,1.1,0,0,0-1.11,1.11v4.05a1.11,1.11,0,0,0,1.11,1.11H323.4A1.11,1.11,0,0,0,324.51,227.83Z" transform="translate(-94.16 -187.8)"/><rect class="cls-1" x="218.63" y="23.9" width="4.65" height="4.53"/><path class="cls-1" d="M317.44,188.43V194h-4.65v-5.53a.51.51,0,0,1,.56-.43h3.53A.51.51,0,0,1,317.44,188.43Z" transform="translate(-94.16 -187.8)"/><rect class="cls-1" x="208.25" y="6.16" width="25.41" height="17.74" rx="2.51"/><rect class="cls-1" x="650.03" y="24.03" width="4.65" height="4.53"/><path class="cls-1" d="M748.84,188.55v5.53h-4.65v-5.53a.51.51,0,0,1,.56-.43h3.53A.51.51,0,0,1,748.84,188.55Z" transform="translate(-94.16 -187.8)"/><path class="cls-1" d="M749,211.83h-5a2.52,2.52,0,0,1-2.52-2.52V196.59a2.52,2.52,0,0,1,2.52-2.51h5a2.51,2.51,0,0,1,2.51,2.51v12.72C751.55,209.48,751.54,210.37,749,211.83Z" transform="translate(-94.16 -187.8)"/><path class="cls-1" d="M749.65,221.51v-4a1.11,1.11,0,0,0-1.11-1.1h-4a1.11,1.11,0,0,0-1.11,1.1v4a1.11,1.11,0,0,1-1.11,1.11h-4a1.1,1.1,0,0,0-1.1,1.11v4.05a1.11,1.11,0,0,0,1.1,1.11h5.57a5.86,5.86,0,0,0,5.86-5.86Z" transform="translate(-94.16 -187.8)"/><rect class="cls-1" x="2.91" y="23.99" width="4.65" height="4.53"/><path class="cls-1" d="M97.07,188.51V194h4.66v-5.53a.51.51,0,0,0-.56-.43H97.64C97.33,188.08,97.07,188.27,97.07,188.51Z" transform="translate(-94.16 -187.8)"/><rect class="cls-1" x="94.36" y="194.04" width="10.08" height="17.74" rx="2.51" transform="translate(104.64 218.03) rotate(-180)"/><path class="cls-1" d="M96.27,221.47v-4.05a1.11,1.11,0,0,1,1.1-1.11h4.06a1.11,1.11,0,0,1,1.1,1.11v4.05a1.11,1.11,0,0,0,1.11,1.1h4a1.11,1.11,0,0,1,1.11,1.11v4a1.11,1.11,0,0,1-1.11,1.11h-5.57A5.85,5.85,0,0,1,96.27,223Z" transform="translate(-94.16 -187.8)"/></g><g id="Layer_4" data-name="Layer 4"><path class="cls-2" d="M751.55,198.91a24.09,24.09,0,0,1,0,9.54A4.5,4.5,0,0,1,750.3,211c-1.76,1.64-4.63,1-5.24.84" transform="translate(-94.16 -187.8)"/><path class="cls-2" d="M749.65,218a9.33,9.33,0,0,1-.35,7,7.41,7.41,0,0,1-3.12,3.36,7.54,7.54,0,0,1-5.54.52" transform="translate(-94.16 -187.8)"/><path class="cls-2" d="M543.51,199.77a9.8,9.8,0,0,1,0,8.17,8.66,8.66,0,0,1-3.89,3.89,9.18,9.18,0,0,1-7.49,0" transform="translate(-94.16 -187.8)"/><path class="cls-2" d="M540.21,225.13a3.7,3.7,0,0,1,0,3c-1.14,2.14-5.59,2.74-11,.78" transform="translate(-94.16 -187.8)"/><path class="cls-2" d="M736.38,228.11H687" transform="translate(-94.16 -187.8)"/><path class="cls-2" d="M520.38,228.11H460" transform="translate(-94.16 -187.8)"/><path class="cls-2" d="M327.82,197a20.68,20.68,0,0,1,0,9.53c-.51,2.1-1,3.91-2.51,5.13-3.27,2.56-8.46.18-8.84,0" transform="translate(-94.16 -187.8)"/><path class="cls-2" d="M324.5,223.46a4.27,4.27,0,0,1,0,3.2c-1,2.17-4.37,3.38-8.2,2.28" transform="translate(-94.16 -187.8)"/><path class="cls-2" d="M305.72,227.83l-36.57.28" transform="translate(-94.16 -187.8)"/><path class="cls-2" d="M103.85,195a116.82,116.82,0,0,0,.59,12.64c.09.71.33,2.37-.63,3.32-.61.61-1.51.71-2.83.86a13.45,13.45,0,0,1-3.07,0" transform="translate(-94.16 -187.8)"/><path class="cls-2" d="M107.69,222.57a4.28,4.28,0,0,1,1.11,2.73,3.7,3.7,0,0,1-1,2.72c-.72.66-1.57.73-3.24.82a17.87,17.87,0,0,1-4-.21" transform="translate(-94.16 -187.8)"/></g><g id="Layer_2" data-name="Layer 2"><path class="cls-3" d="M167.21,237.42c0,2.46,4.74,20,4.74,24s-4,4-4,4h-8.07s-4.05,0-4.05-4,4.22-24,4.22-24" transform="translate(-94.16 -187.8)"/><path class="cls-1" d="M161.06,239.35s4.11,19.78,4.11,21.37-.45,3.33-2.88,3.33" transform="translate(-94.16 -187.8)"/><path class="cls-1" d="M163.82,253a72.85,72.85,0,0,0-1.35,7.71,3.1,3.1,0,0,0,1.35,3" transform="translate(-94.16 -187.8)"/><path class="cls-3" d="M67.26,33H71.7a1.12,1.12,0,0,1,1.12,1.12V47a0,0,0,0,1,0,0H66.13a0,0,0,0,1,0,0V34.12A1.12,1.12,0,0,1,67.26,33Z"/><rect class="cls-3" x="63.6" y="42.71" width="11.77" height="6.97" rx="1.19"/><path class="cls-3" d="M250.69,237.42c0,2.46,4.74,20,4.74,24s-4.05,4-4.05,4h-8.07s-4.05,0-4.05-4,4.22-24,4.22-24" transform="translate(-94.16 -187.8)"/><path class="cls-1" d="M244.54,239.35s4.11,19.78,4.11,21.37-.45,3.33-2.88,3.33" transform="translate(-94.16 -187.8)"/><path class="cls-1" d="M247.3,253a72.85,72.85,0,0,0-1.35,7.71,3.1,3.1,0,0,0,1.35,3" transform="translate(-94.16 -187.8)"/><path class="cls-3" d="M150.74,33h4.45a1.12,1.12,0,0,1,1.12,1.12V47a0,0,0,0,1,0,0h-6.69a0,0,0,0,1,0,0V34.12A1.12,1.12,0,0,1,150.74,33Z"/><rect class="cls-3" x="147.08" y="42.71" width="11.77" height="6.97" rx="1.19"/><path class="cls-3" d="M384.56,237.42c0,2.46,4.74,20,4.74,24s-4.05,4-4.05,4h-8.07s-4.05,0-4.05-4,4.22-24,4.22-24" transform="translate(-94.16 -187.8)"/><path class="cls-1" d="M378.41,239.35s4.11,19.78,4.11,21.37-.45,3.33-2.88,3.33" transform="translate(-94.16 -187.8)"/><path class="cls-1" d="M381.17,253a72.85,72.85,0,0,0-1.35,7.71,3.1,3.1,0,0,0,1.35,3" transform="translate(-94.16 -187.8)"/><path class="cls-3" d="M284.61,33h4.45a1.12,1.12,0,0,1,1.12,1.12V47a0,0,0,0,1,0,0h-6.69a0,0,0,0,1,0,0V34.12A1.12,1.12,0,0,1,284.61,33Z"/><rect class="cls-3" x="280.95" y="42.71" width="11.77" height="6.97" rx="1.19"/><path class="cls-3" d="M468,237.42c0,2.46,4.74,20,4.74,24s-4,4-4,4h-8.07s-4.05,0-4.05-4,4.22-24,4.22-24" transform="translate(-94.16 -187.8)"/><path class="cls-1" d="M461.89,239.35S466,259.13,466,260.72s-.45,3.33-2.88,3.33" transform="translate(-94.16 -187.8)"/><path class="cls-1" d="M464.65,253a72.85,72.85,0,0,0-1.35,7.71,3.1,3.1,0,0,0,1.35,3" transform="translate(-94.16 -187.8)"/><path class="cls-3" d="M368.09,33h4.45a1.12,1.12,0,0,1,1.12,1.12V47a0,0,0,0,1,0,0H367a0,0,0,0,1,0,0V34.12A1.12,1.12,0,0,1,368.09,33Z"/><rect class="cls-3" x="364.43" y="42.71" width="11.77" height="6.97" rx="1.19"/><path class="cls-3" d="M601.92,237.42c0,2.46,4.74,20,4.74,24s-4,4-4,4h-8.07s-4,0-4-4,4.22-24,4.22-24" transform="translate(-94.16 -187.8)"/><path class="cls-1" d="M595.77,239.35s4.1,19.78,4.1,21.37-.44,3.33-2.87,3.33" transform="translate(-94.16 -187.8)"/><path class="cls-1" d="M598.53,253a72.85,72.85,0,0,0-1.35,7.71,3.1,3.1,0,0,0,1.35,3" transform="translate(-94.16 -187.8)"/><path class="cls-3" d="M502,33h4.45a1.12,1.12,0,0,1,1.12,1.12V47a0,0,0,0,1,0,0h-6.69a0,0,0,0,1,0,0V34.12A1.12,1.12,0,0,1,502,33Z"/><rect class="cls-3" x="498.31" y="42.71" width="11.77" height="6.97" rx="1.19"/><path class="cls-3" d="M685.4,237.42c0,2.46,4.74,20,4.74,24s-4,4-4,4H678s-4,0-4-4,4.22-24,4.22-24" transform="translate(-94.16 -187.8)"/><path class="cls-1" d="M679.25,239.35s4.1,19.78,4.1,21.37-.44,3.33-2.87,3.33" transform="translate(-94.16 -187.8)"/><path class="cls-1" d="M682,253a72.85,72.85,0,0,0-1.35,7.71,3.1,3.1,0,0,0,1.35,3" transform="translate(-94.16 -187.8)"/><path class="cls-3" d="M585.45,33h4.45A1.12,1.12,0,0,1,591,34.12V47a0,0,0,0,1,0,0h-6.69a0,0,0,0,1,0,0V34.12A1.12,1.12,0,0,1,585.45,33Z"/><rect class="cls-3" x="581.79" y="42.71" width="11.77" height="6.97" rx="1.19"/></g><g id="Layer_6" data-name="Layer 6"><path class="cls-2" d="M685.18,221.91a8.21,8.21,0,0,1,0,6,7.55,7.55,0,0,1-1.82,2.57" transform="translate(-94.16 -187.8)"/><path class="cls-2" d="M687.71,231.7v3.64h0a5.26,5.26,0,0,1-2.31,2.08,5.61,5.61,0,0,1-4.34.06" transform="translate(-94.16 -187.8)"/><path class="cls-2" d="M686.25,242.16a63,63,0,0,0,2.24,9.91,40.72,40.72,0,0,1,1.51,7.78c.2,2.06.14,3.1-.52,3.94-1,1.23-2.74,1.42-4.84,1.64a17.15,17.15,0,0,1-3.83,0" transform="translate(-94.16 -187.8)"/><path class="cls-2" d="M680.3,253.72" transform="translate(-94.16 -187.8)"/><path class="cls-2" d="M600.57,220.79l1.13,5.36c.25,1.21.42,2,0,2.81a3.65,3.65,0,0,1-2.59,1.55" transform="translate(-94.16 -187.8)"/><path class="cls-2" d="M604.23,231.7c.1.22,1.34,3,0,4.59a4,4,0,0,1-2.31,1.13,11,11,0,0,1-5.11.06" transform="translate(-94.16 -187.8)"/><path class="cls-2" d="M602.73,242c.72,3.86,1.47,6.9,2,9a33,33,0,0,1,1,4.75c.34,2.57.57,4.43-.3,6.44a5.86,5.86,0,0,1-2.88,3.28,5.55,5.55,0,0,1-4.27,0" transform="translate(-94.16 -187.8)"/><path class="cls-2" d="M466.7,220.79a46.33,46.33,0,0,1,1.12,4.59c.79,4.23.27,4.89,0,5.13s-1,.81-3.27,0" transform="translate(-94.16 -187.8)"/><path class="cls-2" d="M470.36,231.7c1.13,2.37.4,4.87-1.2,5.78a4,4,0,0,1-3.33,0" transform="translate(-94.16 -187.8)"/><path class="cls-2" d="M468.73,241.39c1,4.06,1.95,8.27,2.82,12.62a25.12,25.12,0,0,1,1,5.35c.3,3.07-.12,4-.6,4.63a4.5,4.5,0,0,1-3.24,1.44" transform="translate(-94.16 -187.8)"/><path class="cls-2" d="M384.34,221.91v8.6h-3" transform="translate(-94.16 -187.8)"/><path class="cls-2" d="M386.88,232.53a4.7,4.7,0,0,1,0,3.76,4.48,4.48,0,0,1-2.21,2.15,4.72,4.72,0,0,1-4.88-1" transform="translate(-94.16 -187.8)"/><path class="cls-2" d="M385.45,242.31a112.2,112.2,0,0,0,2.95,13.27,16.44,16.44,0,0,1,.68,3.7c.17,2.19.29,3.72-.66,4.79s-2.39,1.17-4.55,1.36a15.24,15.24,0,0,1-2.81,0" transform="translate(-94.16 -187.8)"/><path class="cls-2" d="M250.47,221.91c1.53,2.69,1.5,5.63,0,7.3a4.42,4.42,0,0,1-2.17,1.3" transform="translate(-94.16 -187.8)"/><path class="cls-2" d="M253,231.7v4.59h0l-3.68,1.19" transform="translate(-94.16 -187.8)"/><path class="cls-2" d="M251.27,240.87c1.42,9.6,2.68,14.8,3.81,17.59.27.67,1.1,2.62.24,4-.53.87-1.43,1.09-2.94,1.69a34.1,34.1,0,0,0-5.1,2.55" transform="translate(-94.16 -187.8)"/><path class="cls-2" d="M165.86,220.79a8.47,8.47,0,0,1,1.13,2.55,9.55,9.55,0,0,1,0,4.34c-.3,1.64-.46,2.54-1.16,2.83-1.06.43-2.46-.95-2.55-1" transform="translate(-94.16 -187.8)"/><path class="cls-2" d="M169.52,231.7c.07.13,1.37,3,0,4.59a4.05,4.05,0,0,1-2.31,1.13,8.51,8.51,0,0,1-3.93.06" transform="translate(-94.16 -187.8)"/><path class="cls-2" d="M168.31,243.27c.57,2.72,1.09,4.92,1.45,6.4,0,0,.91,3.68,1.89,9.13.42,2.32.58,3.47-.1,4.55-.84,1.34-2.46,1.77-3.65,2.08a10.2,10.2,0,0,1-5.13,0" transform="translate(-94.16 -187.8)"/></g></svg>