<svg version="1.1" id="Layer_2_00000114772843435249003840000004751264118203081374_" xmlns="http://www.w3.org/2000/svg" x="0" y="0" viewBox="0 0 1620.4 85.8" style="enable-background:new 0 0 1620.4 85.8" xml:space="preserve"><style>.st0{stroke-miterlimit:10}.st0,.st1{fill:none;stroke:#000;stroke-width:.75}</style><g id="Layer_1-2"><path class="st0" d="M989 .5h52.1v18.8H989zM244 21.9c2.9 0 5.2-.5 6.8-1.5 1.6-1 2.5-2.7 2.5-5.1s-.8-4.1-2.5-5.1-3.9-1.6-6.8-1.6h-6.1V22c0-.1 6.1-.1 6.1-.1zM148.9 67.3c4.5 5 11.2 7.5 20.1 7.5 5.9 0 11.3-1.2 16.3-3.7 2.9-1.4 5.6-3.2 8-5.2V.5h-51.2V45c.1 9.9 2.4 17.3 6.8 22.3zM254.2 75.1c4.8 0 9-1 12.8-2.9s6.6-4.6 8.6-7.9c2-3.3 3-7 3-11.1v-.5c0-4-1-7.7-2.9-11s-4.8-5.8-8.4-7.7c-3.7-1.9-8-2.9-13.1-2.9H238v44h16.2zM702.9.5h-17.1v17.1zM448.1 14.1l-7 16.3h14zM546.5.5h-49.1L522 28.1zM350.2 49.8h.5l24.2 21.5 19-70.8h-86.5l19 70.3zM1052.8.5h567.6M989 .5h52.2M957.2.5h20.2M892.2.5h30.2M810.4.5h7.6M718.1.5h40.4M685.8.5h17.1M661.4.5H674M560.5.5h78.6M497.4.5h49.1M455 .5h28.1M406.3.5h34.9M307.4.5h86.5M256.5.5H295M205 .5h21.3M142.2.5h51.2M119 .5h11.6M0 .5h96.7"/><path class="st1" d="M96.7.5c-1.2.7-2.3 1.5-3.4 2.4-4.1 3.5-7.2 8.7-9.3 15.5L71.2 60c-1.7 5.3-3.6 9-5.9 11.2-2.3 2.2-5.3 3.3-8.9 3.3s-6.9-1-10.3-3v11.6c3.9 1.6 7.8 2.3 11.6 2.3 6.7 0 11.9-1.8 15.7-5.3 3.8-3.6 6.8-9.2 9.2-16.8L95.1 23c1.6-5.1 3.6-8.8 6.1-11.1 2.5-2.3 5.6-3.4 9.1-3.4 3 0 5.9.7 8.7 2V.5M193.4.5v65.4c1.7-1.4 3.3-3 4.7-4.7l3.3 11.9c-2.1 2.1-4.6 4-7.5 5.6l.3 6.1H205V.5M130.6.5v45.8c0 12.8 3.2 22.5 9.7 29.2 6.5 6.7 15.8 10 27.8 10 6.6 0 12.9-1.2 18.9-3.5 2.5-1 4.8-2.1 6.9-3.3l-.2-3.9-.4-3.3v-5.6c-2.4 2-5.1 3.7-8 5.2-5 2.4-10.4 3.7-16.3 3.7-8.9 0-15.6-2.5-20.1-7.5-4.5-5-6.8-12.4-6.8-22.2V.5"/><path class="st1" d="M198.1 61.3c-1.4 1.7-3 3.3-4.7 4.7v5.6l.4 3.3.2 3.9c2.9-1.7 5.4-3.5 7.5-5.6l-3.4-11.9zM234.9 8.5h3V5.7zM251.8 21.9l-2 6.8c4.9-.7 8.6-2.2 11.2-4.7.5-.5.9-1 1.4-1.5-2.5-.4-5.1-.6-7.9-.6h-2.7z"/><path class="st1" d="M226.3.5v84.4h29.8c6.8 0 12.8-1.4 18.1-4.3s9.4-6.7 12.3-11.5 4.3-10 4.3-15.5v-.4c0-5.5-1.3-10.6-4-15.4-2.7-4.8-6.8-8.6-12.3-11.6-3.5-1.9-7.6-3.2-12.1-3.8-.4.5-.9 1.1-1.4 1.5-2.6 2.5-6.3 4.1-11.2 4.7l2-6.8h2.7c2.8 0 5.4.2 7.8.6 1.7-2.3 2.5-5.1 2.5-8.5v-.1c0-5.1-1.9-9-5.6-11.6-.9-.6-1.9-1.2-2.9-1.7m-21.4 8 3.1-2.8v2.8h6.1c2.9 0 5.2.5 6.8 1.6s2.5 2.8 2.5 5.1-.8 4.1-2.5 5.1c-1.6 1-3.9 1.5-6.8 1.5H238v9.3h16.2c5 0 9.4 1 13.1 2.8 3.7 1.9 6.5 4.5 8.4 7.7s2.9 6.9 2.9 11v.5c0 4-1 7.7-3 11.1-2 3.3-4.9 6-8.6 7.9-3.7 1.9-8 2.9-12.8 2.9H238v3.2l-2.9-3.2h2.9V31h-3.2v-9.3h3.2V8.5h-3.1z"/><path class="st1" d="M237.9 78.4v-3.3h-2.8zM234.7 21.9h3.2v9.3h-3.2zM377.7 73.8l-2.8-2.5-1.6 6.1z"/><path class="st1" d="m295 .5 23.5 84.4h8.6l23.3-20.1-2.4-2h4.8l-2.4 2 23.2 20.1h9.3L406.3.5"/><path class="st1" d="m393.9.5-19 70.8 2.8 2.5-4.4 3.6 1.6-6.1-24.2-21.5h-.5l-23.8 21 1.8 6.7-5-3.7 3.2-3-19-70.3"/><path class="st1" d="m328.2 77.5-1.8-6.7-3.2 3zM348 62.8l2.4 2 2.4-2zM441.2.5l-35.6 84.1v.3h12.3l18.9-44.2h-2.4l-.3-10.3h7l7-16.3-1-2.4h2l-1 2.4 7 16.3h7.5l.3 10.3h-3.4l18.7 44.2h12.4v-.3L455 .5"/><path class="st1" d="m447.1 11.7 1 2.4 1-2.4zM441.1 30.4l-4.3 10.3h22.7l-4.4-10.3z"/><path class="st1" d="m434.1 30.4.3 10.3h2.4l4.3-10.3zM462.6 30.4h-7.5l4.4 10.3h3.4zM515.9 35.5v2.7l1.1 1.3h9.5l1-1.2v-2.8zM524.8 31.3l-2.8-3.2-2.8 3.2z"/><path class="st1" d="M546.5.5 522 28.1l2.8 3.2h-5.6l2.8-3.2L497.4.5"/><path class="st1" d="m483.1.5 32.8 37.7v-2.7h11.6v2.8l33-37.8"/><path class="st1" d="m517 39.5-1.1-1.3v46.7h11.6V38.3l-1 1.2zM639.1.5c-1.2.7-2.3 1.5-3.4 2.4-4.1 3.5-7.2 8.7-9.3 15.5L613.6 60c-1.7 5.3-3.6 9-5.9 11.2-2.3 2.2-5.3 3.3-8.9 3.3s-6.9-1-10.3-3v11.6c3.9 1.6 7.8 2.3 11.6 2.3 6.7 0 11.9-1.8 15.7-5.3 3.8-3.6 6.8-9.2 9.2-16.8L637.5 23c1.6-5.1 3.6-8.8 6.1-11.1 2.5-2.3 5.5-3.4 9.1-3.4 3 0 5.9.7 8.7 2V.5M681.8 21.6l4 4.7v-8.7zM693 25.1l3.8-3.7-3.8-4.5z"/><path class="st1" d="m702.9.5-17.1 17.1v8.7l49.4 58.6h15v-.2l-53.4-63.3-3.8 3.7v-8.2l3.8 4.5L718.1.5M674 .5v84.4h11.8V26.3l-4-4.7 4-4V.5M770.3 21.8h18.3V32h-18.3z"/><path class="st1" d="M758.5.5v84.4h8.2V74.4h3.6V31.9h-3.6V21.8h3.6v-13h-3.6V.5"/><path class="st1" d="M770.3.5v8.3h40.1V.5M766.7 21.8h3.6V32h-3.6z"/><path class="st1" d="M766.7.5v8.3h3.6V.5M766.7 74.4h3.6v10.5h-3.6z"/><path class="st1" d="M770.3 74.4h44.6v10.5h-44.6zM849.2 2.1H861v6.7h-11.8z"/><path class="st1" d="M818 .5v8.3h31.2V2.1H861v6.7h31.2V.5M849.2 8.8H861V85h-11.8zM922.3.5c-2.2.8-4.3 1.7-6.4 2.9-7 3.8-12.5 9.1-16.5 15.8-4 6.7-6 14.2-6 22.4s2 15.7 6 22.4c4 6.7 9.5 11.9 16.5 15.8 7 3.8 14.8 5.8 23.5 5.8 8.2 0 15.7-1.6 22.7-4.8V69.1c-3.1 1.9-6.5 3.3-10.3 4.3-3.8 1-7.7 1.5-11.8 1.5-6.5 0-12.4-1.4-17.7-4.3-5.2-2.9-9.3-6.8-12.3-11.9-3-5-4.5-10.7-4.5-17.1s1.5-12.1 4.5-17.1c3-5 7.1-9 12.3-11.9s11.1-4.3 17.7-4.3c8.3 0 15.6 1.9 22 5.8V2.4c-1.6-.7-3.2-1.4-4.8-1.9M1041.2.5v18.8h3.9v10.5h-3.9v55.1h11.6V.5"/><path class="st1" d="M1041.2 19.3h4v10.5h-4zM989 19.3h52.1v10.5H989zM977.4.5v84.4H989V29.8h-3.3V19.3h3.3V.5"/><path class="st1" d="M985.7 19.3h3.3v10.5h-3.3z"/></g></svg>