<?xml version="1.0" encoding="utf-8"?>
<!-- Generator: Adobe Illustrator 28.2.0, SVG Export Plug-In . SVG Version: 6.00 Build 0)  -->
<svg version="1.1" id="Layer_2_00000026146103047473458460000017241210073886091418_"
	 xmlns="http://www.w3.org/2000/svg" xmlns:xlink="http://www.w3.org/1999/xlink" x="0px" y="0px" viewBox="0 0 618.5 646.5"
	 style="enable-background:new 0 0 618.5 646.5;" xml:space="preserve">
<style type="text/css">
	.st0{fill:none;stroke:#231F20;stroke-width:0.4;stroke-miterlimit:10;}
	.st1{fill:none;stroke:#231F20;stroke-width:0.5;stroke-miterlimit:10;}
	.st2{fill:#231F20;}
	.st3{fill:none;stroke:#231F20;stroke-width:0.5;stroke-linecap:round;stroke-miterlimit:10;}
	.st4{fill:none;stroke:#000000;stroke-width:0.25;stroke-miterlimit:10;}
	.st5{clip-path:url(#SVGID_00000175305625543471240260000015892176438503855269_);}
</style>
<g id="Layer_1-2">
	<g>
		<line class="st0" x1="128" y1="96.3" x2="618.5" y2="96.3"/>
		<g>
			<rect x="285.4" y="100.7" class="st0" width="155" height="439.1"/>
			<polygon class="st0" points="130.7,539.8 260.6,539.8 260.6,100.7 189,100.7 130.7,387.2 			"/>
			<g>
				<path class="st0" d="M185.6,338.7l57.4-73.8V117h-40.1l-42.1,210.1c-1.6,7.6,3.4,15.1,11,16.6l0,0
					C176.9,344.9,182.3,342.9,185.6,338.7L185.6,338.7z"/>
				<path class="st1" d="M237.5,122.5h-31.5l-41.4,206.3c-0.5,2.5,0,5,1.4,7s3.5,3.5,5.9,4c0.6,0.1,1.2,0.2,1.8,0.2
					c2.9,0,5.6-1.3,7.4-3.6l56.4-72.5L237.5,122.5L237.5,122.5L237.5,122.5z"/>
				<path class="st1" d="M234.8,125.2V263L179,334.8c-1.2,1.6-3.2,2.5-5.2,2.5c-0.4,0-0.9,0-1.3-0.1c-1.7-0.4-3.2-1.4-4.2-2.8
					c-1-1.5-1.3-3.2-0.9-5l40.9-204.1L234.8,125.2"/>
			</g>
		</g>
		<path class="st2" d="M129.2,97.9c31.4-0.2,62.8-0.3,94.2,0c31,0.3,62,1.3,93,1.4c62.2,0.3,124.5-0.9,186.8-1.6
			c17.5-0.2,34.9-0.5,52.4-0.6c15.8-0.2,31.7-0.2,47.5,1.7c1.9,0.2,1.9-2.8,0-3c-14-1.7-28.1-1.8-42.1-1.7
			c-15.5,0.1-30.9,0.3-46.4,0.5c-31.2,0.4-62.4,0.8-93.6,1.1c-31.1,0.3-62.1,0.7-93.2,0.7c-31,0-62-0.9-93-1.3
			c-35.1-0.5-70.3-0.3-105.5-0.2C127.3,94.9,127.3,97.9,129.2,97.9L129.2,97.9L129.2,97.9z"/>
		<path class="st2" d="M200,117c14.1,0,28.2,0,42.3,0.1l-1.5-1.5c0.7,17.9,0.3,35.9,0.1,53.8c-0.3,21.1-0.7,42.2-0.6,63.3
			c0.1,10.9,0.2,21.9,0.8,32.8c0.1,1.9,3.1,1.9,3,0c-1-20.1-0.9-40.4-0.7-60.5s0.7-41,0.8-61.5c0-9.3,0-18.6-0.4-27.9
			c0-0.8-0.7-1.5-1.5-1.5c-14.1,0-28.2,0-42.3-0.1C198.1,114,198.1,117,200,117L200,117L200,117z"/>
		<path class="st2" d="M206.9,126.9c-5.3,24.1-9.6,48.5-14.1,72.8c-2.4,12.8-4.9,25.6-7.5,38.4s-5.8,26.7-8.8,40
			c-3.3,15.1-6.7,30.2-10,45.2c-0.4,1.9,2.5,2.7,2.9,0.8c5.9-26.8,12-53.6,17.7-80.4s10-51.2,14.8-76.9c2.5-13.1,5-26.2,7.8-39.2
			C210.2,125.8,207.4,125,206.9,126.9L206.9,126.9L206.9,126.9z"/>
		<path class="st2" d="M186.1,97.7c-3.7,16.9-7.1,33.9-10.3,50.9c-3.5,18.6-6.9,37.3-10.4,56s-7.1,37.7-11.1,56.5
			c-4.1,19.6-8.5,39.1-12.8,58.6s-8.7,39.6-13.1,59.4c-0.6,2.5-1.1,5-1.7,7.5c-0.4,1.9,2.5,2.7,2.9,0.8c4.4-19.9,8.8-39.8,13.2-59.7
			s8.8-39.3,13-59s7.6-37.5,11.2-56.3s7-37.5,10.5-56.3c3.2-17.3,6.6-34.6,10.3-51.8c0.4-1.9,0.8-3.9,1.3-5.8S186.5,95.8,186.1,97.7
			L186.1,97.7L186.1,97.7z"/>
		<path class="st2" d="M430.6,122.5c-0.6,30.8-1,61.6-1.2,92.4c-0.2,28.6-0.2,57.3,0.2,85.9c0.2,13.2,0.4,26.3,0.4,39.5
			c0.1,10.8,0.6,21.5,0.8,32.2c0.2,13.3-0.6,26.6-0.9,39.9c-0.3,12.5-0.3,25-0.2,37.6c0.2,26,1,52,0.9,78c0,3.8,0,7.6-0.1,11.4
			c0,1.9,3,1.9,3,0c0.3-26.7-0.3-53.4-0.7-80.1c-0.2-12.4-0.2-24.7-0.1-37.1c0.2-13.5,0.9-26.9,1-40.4c0.1-11.1-0.4-22.1-0.6-33.2
			c-0.3-12.4-0.2-24.9-0.4-37.3c-0.5-28.2-0.7-56.4-0.5-84.6c0.2-30.8,0.5-61.6,1.1-92.4c0.1-3.9,0.1-7.8,0.2-11.7
			C433.6,120.6,430.6,120.6,430.6,122.5L430.6,122.5L430.6,122.5z"/>
		<path class="st2" d="M350.7,543.7c-25.5-0.6-51.1-1-76.6-1.2c-23.9-0.2-47.7-0.2-71.6,0.2c-10.9,0.2-21.9,0.3-32.8,0.4
			c-9,0.1-18,0.6-27,0.8c-11,0.2-21.9-0.6-32.9-0.9c-9.5-0.3-19-0.3-28.5-0.2c-19.8,0.3-39.5,1-59.3,0.9c-3,0-6.1,0-9.1-0.1
			c-1.9,0-1.9,3,0,3c20.5,0.2,41-0.3,61.5-0.7c9.3-0.2,18.6-0.2,27.9-0.1c10.9,0.2,21.9,0.9,32.8,1c9.2,0.1,18.5-0.4,27.7-0.6
			c10.4-0.3,20.8-0.2,31.1-0.4c23.4-0.5,46.8-0.7,70.3-0.5c25.7,0.2,51.3,0.5,77,1.1c3.1,0.1,6.3,0.1,9.4,0.2
			C352.6,546.7,352.6,543.7,350.7,543.7L350.7,543.7L350.7,543.7z"/>
		<path class="st2" d="M395.4,612.2c-26-0.5-52-0.8-78-1c-24.3-0.2-48.6-0.2-72.9,0.2c-11.1,0.2-22.3,0.3-33.4,0.4
			c-9.2,0.1-18.3,0.5-27.5,0.6c-11.2,0.1-22.3-0.5-33.5-0.7c-9.7-0.2-19.4-0.2-29.1-0.1c-20.1,0.2-40.2,0.8-60.3,0.7
			c-3.1,0-6.2,0-9.2-0.1c-1.9,0-1.9,3,0,3c20.9,0.2,41.8-0.2,62.6-0.6c9.5-0.2,19-0.2,28.5-0.1c11.1,0.2,22.3,0.8,33.4,0.9
			c9.4,0.1,18.8-0.3,28.2-0.5c10.6-0.2,21.1-0.2,31.7-0.3c23.9-0.4,47.7-0.6,71.6-0.4c26.1,0.2,52.3,0.5,78.4,0.9
			c3.2,0.1,6.4,0.1,9.6,0.2C397.4,615.3,397.4,612.3,395.4,612.2L395.4,612.2L395.4,612.2z"/>
		<path class="st2" d="M486.4,640.5c-38.3-0.7-76.6-1.2-114.8-1.3c-34-0.2-67.9,0.7-101.9,0.8c-13.6,0.1-27.2,0.9-40.8,0.8
			c-17.8-0.1-35.6-1.1-53.5-1.1c-17.1,0-34.2,0.3-51.3,0.6c-10.6,0.2-21.1,0.2-31.7,1c-8.1,0.6-16.3,0.4-24.1-2
			c-10.8-3.3-19.6-10.6-25.8-20c-2-3.1-3.8-6.3-5.3-9.7c-0.8-1.8-3.4-0.2-2.6,1.5c5.2,11.3,13.1,21.6,24.3,27.5
			c8,4.2,16.9,5.9,25.9,6c7.2,0,14.3-1,21.5-1c17.6-0.2,35.1-0.6,52.7-0.8s35.7,0,53.6,0.7c15,0.6,30,0.2,45-0.2
			c15.7-0.4,31.4-0.3,47.1-0.6c17.2-0.3,34.4-0.5,51.6-0.5c38.6,0.1,77.1,0.5,115.7,1.1c4.8,0.1,9.6,0.2,14.4,0.3
			C488.4,643.6,488.4,640.6,486.4,640.5L486.4,640.5L486.4,640.5z"/>
		<path class="st2" d="M260,30.5c-0.4,7.9-0.5,15.9-0.7,23.8c-0.3,12.8-0.5,25.6-0.7,38.4c-0.2,12-0.4,24-0.5,35.9
			c0,4-0.1,7.9-0.1,11.9c-0.1,6.6,0.4,13.2,0.6,19.8c0.2,4.3,0.3,8.5,0.6,12.7c0.4,4.8-0.3,9.5-0.6,14.3c-0.6,9.4,0.4,18.9,0.6,28.4
			c0,2.6,0,5.3,0,7.9c-0.1,1.9,2.9,1.9,3,0c0.3-9.8-0.7-19.6-0.7-29.4c0-2.3,0-4.6,0.2-6.9c0.2-2.6,0.5-5.3,0.7-7.9
			c0.2-4.1-0.4-8.2-0.6-12.3c-0.2-4.9-0.3-9.7-0.5-14.6c-0.2-3.4-0.3-6.7-0.3-10.1s0.1-6.9,0.1-10.4c0.1-11.5,0.3-23,0.5-34.5
			c0.2-13,0.4-26,0.7-39c0.2-8.8,0.3-17.7,0.7-26.5c0-0.5,0-1,0.1-1.5C263.1,28.5,260.1,28.5,260,30.5L260,30.5L260,30.5z"/>
		<path class="st2" d="M260,319.8c-0.2,5.7-0.3,11.5-0.9,17.1c0,0.3-0.1,0.6-0.1,0.9c0,0.1-0.1,0.5,0,0.2s0,0.2,0,0.3
			c-0.1,0.5-0.1,0.9-0.2,1.4c-0.2,1.1-0.3,2.3-0.4,3.4c-0.4,5.6-0.4,11.3-0.4,16.9c0,8.6,0.2,17.1,0.5,25.7s0.3,16.9,0.4,25.4
			c0.1,7,0.6,13.9,0.8,20.9c0.1,8.6-0.6,17.2-0.9,25.8c-0.3,8-0.3,16-0.2,24c0.2,16.7,1,33.4,0.9,50.2c0,2.4,0,4.9-0.1,7.3l1.5-1.5
			c-4.9,0.1-9.7,0.2-14.6,0.1c-6.4-0.1-12.8-0.6-19.2-0.5c-10.8,0.2-21.6,1.3-32.4,2.2c-2.2,0.2-4.4,0.4-6.6,0.5
			c-1.1,0.1-2.2,0.2-3.4,0.2c-1.9-0.1-1.9,2.9,0,3c2.7,0.2,5.6-0.3,8.3-0.5c5.2-0.4,10.5-0.9,15.8-1.3s11-0.8,16.5-1
			c6-0.2,11.9,0.2,17.9,0.4s11.8,0.1,17.7,0c0.8,0,1.5-0.7,1.5-1.5c0.3-17.2-0.3-34.5-0.7-51.7c-0.2-7.9-0.2-15.8-0.1-23.7
			c0.2-8.7,0.9-17.4,1-26.1c0.1-7.1-0.4-14.2-0.6-21.3c-0.3-8-0.2-16.1-0.4-24.2c-0.4-15.5-1.1-31.2-0.4-46.7
			c0.1-1.4,0.2-2.7,0.3-4.1c0-0.1,0-0.2,0-0.3c0-0.3,0,0.3,0,0c0-0.2,0.1-0.5,0.1-0.7c0.1-0.5,0.1-0.9,0.2-1.4
			c0.6-4.2,0.8-8.4,0.9-12.6c0.1-2.2,0.2-4.3,0.2-6.5C263.1,317.8,260.1,317.8,260,319.8L260,319.8L260,319.8z"/>
		<line class="st3" x1="260.1" y1="60.9" x2="471.5" y2="60.9"/>
		<path class="st2" d="M33.2,281c-6,30.8-11.7,61.7-15.5,92.9c-0.9,6.9-1.8,13.8-2.8,20.6c-0.8,5.6-1.1,11.4-1.9,17
			c-0.9,6.9-2.7,13.6-4.1,20.4c-1.2,5.9-2.2,11.9-3,17.8C4,464.1,2.6,478.5,0,492.8c-0.3,1.9,2.6,2.7,2.9,0.8
			c2.3-12.9,3.8-26,5.4-39c0.7-5.8,1.6-11.6,2.6-17.3c1.2-6.8,3.1-13.5,4.2-20.4c1-5.8,1.5-11.6,2.1-17.5c0.7-6.5,1.8-12.9,2.6-19.4
			c0.9-7.1,1.7-14.1,2.7-21.2c1.1-7.6,2.4-15.2,3.7-22.9c3-18.1,6.3-36.2,9.8-54.2C36.5,279.9,33.6,279.1,33.2,281L33.2,281
			L33.2,281z"/>
		<g>
			<path class="st4" d="M249.1,0.2C194.6,1.7,151.5,9.4,122,24.4c-19.3,9.8-32.8,28.2-37.5,49.3C50.1,227,16.9,377.2,8.1,467.1
				c-2.3,23.8-0.6,47.8,4.9,71.1l4.2,17.7c0.6,2.4,1.3,4.8,2.1,7.1l17.7,51.6c6.5,19,24.3,31.7,44.3,31.7h167.9"/>
			<g>
				<defs>
					<path id="SVGID_1_" d="M249.1,0.2C194.6,1.7,151.5,9.4,122,24.4c-19.3,9.8-32.8,28.2-37.5,49.3C50.1,227,16.9,377.2,8.1,467.1
						c-2.3,23.8-0.6,47.8,4.9,71.1l4.2,17.7c0.6,2.4,1.3,4.8,2.1,7.1l17.7,51.6c6.5,19,24.3,31.7,44.3,31.7h167.9V0.2"/>
				</defs>
				<clipPath id="SVGID_00000176018474061436774250000000793128023802569650_">
					<use xlink:href="#SVGID_1_"  style="overflow:visible;"/>
				</clipPath>
				<g style="clip-path:url(#SVGID_00000176018474061436774250000000793128023802569650_);">
					<path class="st4" d="M9.6,361.8h29.8c20.2,0,37.5-12.2,40.9-29l56.3-274.1c1.3-6.2-4.4-11.9-12-11.9H92.8L9.6,361.8z"/>
					<g>
						<path class="st4" d="M81.5,87.4h22.8c0.2,0,0.5,0,0.8,0c5.2,0,11.3,2.3,13.6,5.1c0.8,1,1.2,2,1,3.1L76.4,298.3
							c-2.3,12.6-16.2,22-33.8,22.8l-23.8,0.4L81.5,87.4L81.5,87.4z"/>
						<path class="st4" d="M105.1,87.5c5.2,0,11.2,2.2,13.5,5c0.8,1,1.1,2,0.9,2.9L76.3,298.3c-2.3,12.5-16.2,21.9-33.7,22.6
							l-23.6,0.4L81.6,87.5h22.8C104.6,87.5,104.8,87.5,105.1,87.5 M105.1,87.3c-0.2,0-0.5,0-0.8,0H81.4L18.6,321.5l24-0.4
							c18.1-0.8,31.6-10.5,33.9-22.9l43.3-202.8C120.6,91.1,111.8,87.3,105.1,87.3L105.1,87.3L105.1,87.3z"/>
					</g>
				</g>
				<use xlink:href="#SVGID_1_"  style="overflow:visible;fill:none;stroke:#000000;stroke-width:0.25;stroke-miterlimit:10;"/>
			</g>
		</g>
	</g>
</g>
</svg>
